<?xml version="1.0" encoding="iso-8859-1"?>
<!-- Generator: Adobe Illustrator 17.1.0, SVG Export Plug-In . SVG Version: 6.00 Build 0)  -->
<!DOCTYPE svg PUBLIC "-//W3C//DTD SVG 1.1//EN" "http://www.w3.org/Graphics/SVG/1.1/DTD/svg11.dtd">
<svg version="1.1" id="Capa_1" xmlns="http://www.w3.org/2000/svg" xmlns:xlink="http://www.w3.org/1999/xlink" x="0px" y="0px"
	 viewBox="0 0 408.793 408.793" style="enable-background:new 0 0 408.793 408.793;" xml:space="preserve">
<path d="M402.982,221.039l-46.759-46.759c-0.542-0.542-5.486-5.288-12.329-5.288c-4.079,0-7.955,1.72-11.209,4.975l-104.77,104.77
	c-13.075,13.074-30.458,20.275-48.948,20.275s-35.874-7.201-48.948-20.275c-13.075-13.074-20.275-30.458-20.275-48.948
	c0-18.49,7.2-35.874,20.275-48.948L233.042,77.816c6.71-6.71,6.921-13.113,5.916-17.303c-1.073-4.474-3.797-7.296-4.104-7.603
	L187.717,5.774C183.778,1.835,180.202,0,176.465,0c-5.236,0-8.881,3.645-12.406,7.17L49.156,122.072
	c-65.486,65.486-65.486,172.04,0,237.526c31.723,31.724,73.901,49.194,118.764,49.194c44.863,0,87.041-17.471,118.764-49.194
	l114.902-114.901c3.013-3.014,5.859-5.859,6.836-9.736C410.128,228.186,404.749,222.807,402.982,221.039z M148.251,43.146
	l16.725-16.725c5.271-5.271,12.921-8.992,20.516-1.396l32.076,32.076c0,0,8.011,8.011-1.812,17.834
	c-2.416,2.416-17.928,17.928-20.737,20.737c-8.077,8.077-16.466-0.313-16.466-0.313l-31.697-31.697
	C139.259,56.067,142.98,48.417,148.251,43.146z M382.334,243.78l-16.725,16.725c-5.271,5.271-12.921,8.992-20.516,1.397
	l-32.076-32.076c0,0-8.011-8.011,1.812-17.834c2.416-2.416,17.928-17.928,20.737-20.737c8.077-8.077,16.466,0.313,16.466,0.313
	l31.697,31.697C391.326,230.859,387.605,238.509,382.334,243.78z"/>
<g>
</g>
<g>
</g>
<g>
</g>
<g>
</g>
<g>
</g>
<g>
</g>
<g>
</g>
<g>
</g>
<g>
</g>
<g>
</g>
<g>
</g>
<g>
</g>
<g>
</g>
<g>
</g>
<g>
</g>
</svg>
