<svg width="68" height="88" viewBox="0 0 68 88" fill="none" xmlns="http://www.w3.org/2000/svg">
<g filter="url(#filter0_d)">
<path d="M17.4839 53.9769C16.8653 57.4853 17.645 60.6215 19.8232 63.3854C22.0094 66.1033 25.2261 67.8366 29.4731 68.5854C33.4431 69.2855 37.0137 68.6061 40.185 66.5474C43.4025 64.4968 45.3409 61.602 46.0002 57.8628L58.1872 60.0117C56.9174 67.2131 53.4152 72.4977 47.6808 75.8656C41.9925 79.2416 35.3169 80.254 27.6538 78.9028C19.76 77.5109 13.7205 74.3755 9.53539 69.4965C5.35843 64.5714 3.87636 58.6697 5.08918 51.7914C6.60318 43.2051 11.6219 38.0927 20.1453 36.4541C17.0223 34.1899 14.7396 31.4789 13.2973 28.3211C11.9011 25.1714 11.5001 21.9117 12.0943 18.5418C13.3072 11.6635 16.5093 6.73053 21.7007 3.74287C26.9003 0.709053 33.447 -0.111908 41.3408 1.27999C48.5884 2.55793 54.2464 5.6975 58.3147 10.6987C62.4374 15.6619 63.9208 21.421 62.7649 27.9761L50.5779 25.8272C51.1559 22.5497 50.4019 19.537 48.3161 16.7894C46.2303 14.0417 43.2947 12.3341 39.5094 11.6666C35.4471 10.9503 32.0474 11.4694 29.3106 13.224C26.5818 14.9323 24.9244 17.4484 24.3384 20.7721C23.036 28.1582 26.6549 32.6041 35.195 34.11L47.0358 36.1978L45.2288 46.446L32.3493 44.175C23.831 42.8158 18.8758 46.0831 17.4839 53.9769Z" fill="white"/>
</g>
<defs>
<filter id="filter0_d" x="0.67981" y="0.623352" width="66.4648" height="86.8588" filterUnits="userSpaceOnUse" color-interpolation-filters="sRGB">
<feFlood flood-opacity="0" result="BackgroundImageFix"/>
<feColorMatrix in="SourceAlpha" type="matrix" values="0 0 0 0 0 0 0 0 0 0 0 0 0 0 0 0 0 0 127 0"/>
<feOffset dy="4"/>
<feGaussianBlur stdDeviation="2"/>
<feColorMatrix type="matrix" values="0 0 0 0 0 0 0 0 0 0 0 0 0 0 0 0 0 0 0.25 0"/>
<feBlend mode="normal" in2="BackgroundImageFix" result="effect1_dropShadow"/>
<feBlend mode="normal" in="SourceGraphic" in2="effect1_dropShadow" result="shape"/>
</filter>
</defs>
</svg>